<svg xmlns="http://www.w3.org/2000/svg" viewBox="0 0 1024 1024" width="1024" height="1024">
  <defs>
    <linearGradient id="a-tile" x1="0.2" y1="0" x2="0.8" y2="1">
      <stop offset="0" stop-color="#2a8cf0"/>
      <stop offset="0.45" stop-color="#0a66c2"/>
      <stop offset="1" stop-color="#062f66"/>
    </linearGradient>
    <radialGradient id="a-light" cx="0.3" cy="0.18" r="0.75">
      <stop offset="0" stop-color="#8fd2ff" stop-opacity="0.4"/>
      <stop offset="0.5" stop-color="#3aa0ff" stop-opacity="0.1"/>
      <stop offset="1" stop-color="#3aa0ff" stop-opacity="0"/>
    </radialGradient>
    <radialGradient id="a-depth" cx="0.5" cy="0.45" r="0.7">
      <stop offset="0.62" stop-color="#021633" stop-opacity="0"/>
      <stop offset="1" stop-color="#021633" stop-opacity="0.42"/>
    </radialGradient>
    <linearGradient id="a-sheen" x1="0" y1="0" x2="0" y2="1">
      <stop offset="0" stop-color="#fff" stop-opacity="0.18"/>
      <stop offset="1" stop-color="#fff" stop-opacity="0"/>
    </linearGradient>
    <linearGradient id="a-rim" x1="0.2" y1="0" x2="0.8" y2="1">
      <stop offset="0" stop-color="#fff" stop-opacity="0.6"/>
      <stop offset="0.35" stop-color="#bfe3ff" stop-opacity="0.22"/>
      <stop offset="1" stop-color="#021a3d" stop-opacity="0.5"/>
    </linearGradient>
    <linearGradient id="a-loop" gradientUnits="userSpaceOnUse" x1="28" y1="20" x2="92" y2="100">
      <stop offset="0" stop-color="#ffffff"/><stop offset="1" stop-color="#e3f1ff"/>
    </linearGradient>
    <linearGradient id="a-path" gradientUnits="userSpaceOnUse" x1="58" y1="68" x2="92" y2="100">
      <stop offset="0" stop-color="#d9f3ff"/><stop offset="1" stop-color="#8fd6ff"/>
    </linearGradient>
    <filter id="a-glyph" x="-20%" y="-20%" width="140%" height="140%">
      <feDropShadow dx="0" dy="1.2" stdDeviation="1.6" flood-color="#021633" flood-opacity="0.35"/>
      <feDropShadow dx="0" dy="0" stdDeviation="2.4" flood-color="#8fd6ff" flood-opacity="0.35"/>
    </filter>
    <filter id="a-shadow" x="-10%" y="-10%" width="120%" height="125%">
      <feDropShadow dx="0" dy="14" stdDeviation="18" flood-color="#021633" flood-opacity="0.32"/>
    </filter>
  </defs>
  <g filter="url(#a-shadow)">
    <rect x="100" y="100" width="824" height="824" rx="185" fill="url(#a-tile)"/>
    <rect x="100" y="100" width="824" height="824" rx="185" fill="url(#a-light)"/>
    <rect x="100" y="100" width="824" height="824" rx="185" fill="url(#a-depth)"/>
    <path d="M100 285C100 183 183 100 285 100H739C841 100 924 183 924 285V400C790 450 640 470 512 462C370 454 230 410 100 440Z" fill="url(#a-sheen)"/>
    <rect x="100" y="100" width="824" height="824" rx="185" fill="none" stroke="url(#a-rim)" stroke-width="3"/>
  </g>
  <g transform="translate(169.8 164.0) scale(5.8)">
  <mask id="a-clear" maskUnits="userSpaceOnUse" x="0" y="0" width="120" height="120">
    <rect width="120" height="120" fill="#fff"/>
    <circle cx="57" cy="68" r="11.2" fill="#000"/>
  </mask>
  <g filter="url(#a-glyph)">
    <g mask="url(#a-clear)" fill="none" stroke-width="17" stroke-linecap="round" stroke-linejoin="round">
      <path d="M36 92V40a12 12 0 0 1 12-12h14a20 20 0 0 1 0 40h-6" stroke="url(#a-loop)"/>
      <path d="M58 68 84 94" stroke="url(#a-path)"/>
      
    </g>
    <circle cx="57" cy="68" r="6.2" fill="#ffffff"/>
  </g>
  </g>
</svg>
